{"title":"Shakira Esto es Africa video Spanish Espanol","uid":5693100,"size":179823255,"categoryP":"video","categoryS":"music_videos","magnet":"?xt=urn:btih:31c3135760a7f405d47755befd2964875de03ab6&amp;dn=Shakira+Esto+es+Africa+video+Spanish+Espanol&amp;tr=udp%3A%2F%2Ftracker.openbittorrent.com%3A80&amp;tr=udp%3A%2F%2Fopen.demonii.com%3A1337&amp;tr=udp%3A%2F%2Ftracker.coppersurfer.tk%3A6969&amp;tr=udp%3A%2F%2Fexodus.desync.com%3A6969","seeders":0,"leechers":0,"uploader":"Rosqui","files":29,"time":1279157890,"description":"Shakira - Waka Waka Esto Es Africa; el video original \n\n\nen Espanol, no el Editado de la seleccion Espanola.\n\n\n\nFile Name: Shakira Esto es ÃƒÆ’frica.avi\n\n\nFile Size: 83.7 MiB\n\nDuration: 00:03:32.304\n\nVideo: MPEG-4 Video NTSC 720x480 \n(16/9) 29.97 fps, 3 000 Kbps\n\n\nAudio: MP3 320 Kbps 2ch 48.0 KHz\n\nFormat                           : AVI\nFormat                           : MPEG-4 Visual\nCodec ID                         : DX50\nCodec ID/Hint                    : DivX 5\nScan type                        : Progressive\nStream size                      : 75.4 MiB (90%)\nWriting library                  : DivX 2816\n\nAudio\nFormat                         : MPEG Audio\nFormat version                   : Version 1\nFormat profile                   : Layer 3\nCodec ID                       : 55\nCodec ID/Hint                   : MP3\nBit rate mode                    : Constant\nBit rate                         : 320 Kbps\nChannel(s)                      : 2 channels\nSampling rate                    : 48.0 KHz\nStream size                      : 8.10 MiB (10%)\nWriting library                  : LAME3.96.1\n\n\nIncluyo otro video modificado por mÃƒÂ­, (con dos pistas \n\nde audio: EspaÃƒÂ±ol e InglÃƒÂ©s) a partir del video original \n\nen InglÃƒÂ©s, el audio parece un poco desincronizado.....no \n\nhay que olvidar que Shakira canta en InglÃƒÂ©s en el \n\nmencionado video....\n\n\n\nRosqui.......","torrent":{"xt":"urn:btih:31c3135760a7f405d47755befd2964875de03ab6","amp;dn":"Shakira+Esto+es+Africa+video+Spanish+Espanol","amp;tr":["udp%3A%2F%2Ftracker.openbittorrent.com%3A80","udp%3A%2F%2Fopen.demonii.com%3A1337","udp%3A%2F%2Ftracker.coppersurfer.tk%3A6969","udp%3A%2F%2Fexodus.desync.com%3A6969"],"infoHash":"31c3135760a7f405d47755befd2964875de03ab6","infoHashBuffer":{"type":"Buffer","data":[49,195,19,87,96,167,244,5,212,119,85,190,253,41,100,135,93,224,58,182]},"announce":[],"urlList":[]}}